<?xml version="1.0" encoding="UTF-8" standalone="no"?>
<svg
   xmlns:dc="http://purl.org/dc/elements/1.1/"
   xmlns:cc="http://creativecommons.org/ns#"
   xmlns:rdf="http://www.w3.org/1999/02/22-rdf-syntax-ns#"
   xmlns:svg="http://www.w3.org/2000/svg"
   xmlns="http://www.w3.org/2000/svg"
   xmlns:xlink="http://www.w3.org/1999/xlink"
   xmlns:sodipodi="http://sodipodi.sourceforge.net/DTD/sodipodi-0.dtd"
   xmlns:inkscape="http://www.inkscape.org/namespaces/inkscape"
   version="1.1"
   id="Layer_1"
   x="0px"
   y="0px"
   viewBox="0 0 128 128"
   xml:space="preserve"
   sodipodi:docname="logo.svg"
   inkscape:version="1.0.2 (e86c870879, 2021-01-15)"
   width="128"
   height="128"><metadata
   id="metadata59"><rdf:RDF><cc:Work
       rdf:about=""><dc:format>image/svg+xml</dc:format><dc:type
         rdf:resource="http://purl.org/dc/dcmitype/StillImage" /><dc:title /></cc:Work></rdf:RDF></metadata><defs
   id="defs57"><linearGradient
     inkscape:collect="always"
     id="linearGradient874"><stop
       style="stop-color:#00bfff;stop-opacity:1"
       offset="0"
       id="stop870" /><stop
       style="stop-color:#fa8072;stop-opacity:1"
       offset="0.4666515"
       id="stop878" /><stop
       style="stop-color:#ffa500;stop-opacity:1"
       offset="1"
       id="stop872" /></linearGradient><linearGradient
     inkscape:collect="always"
     id="linearGradient864"><stop
       style="stop-color:#2f4f4f;stop-opacity:1;"
       offset="0"
       id="stop860" /><stop
       style="stop-color:#cd5c5c;stop-opacity:1"
       offset="0.40809572"
       id="stop868" /><stop
       style="stop-color:#32cd32;stop-opacity:1"
       offset="1"
       id="stop862" /></linearGradient><linearGradient
     inkscape:collect="always"
     xlink:href="#linearGradient874"
     id="linearGradient866"
     x1="82.044983"
     y1="222.35376"
     x2="219.8129"
     y2="375.4649"
     gradientUnits="userSpaceOnUse" /><linearGradient
     inkscape:collect="always"
     xlink:href="#linearGradient874"
     id="linearGradient876"
     x1="26.007048"
     y1="171.50656"
     x2="96.838326"
     y2="108.77776"
     gradientUnits="userSpaceOnUse" /><linearGradient
     inkscape:collect="always"
     xlink:href="#linearGradient864"
     id="linearGradient886"
     x1="88.276001"
     y1="128"
     x2="256"
     y2="128"
     gradientUnits="userSpaceOnUse" /><linearGradient
     inkscape:collect="always"
     xlink:href="#linearGradient864"
     id="linearGradient919"
     x1="137.366"
     y1="128"
     x2="374.634"
     y2="128"
     gradientUnits="userSpaceOnUse" /><linearGradient
     inkscape:collect="always"
     xlink:href="#linearGradient874"
     id="linearGradient927"
     x1="256"
     y1="128"
     x2="423.724"
     y2="128"
     gradientUnits="userSpaceOnUse" /><linearGradient
     inkscape:collect="always"
     xlink:href="#linearGradient864"
     id="linearGradient935"
     x1="374.634"
     y1="128"
     x2="512"
     y2="128"
     gradientUnits="userSpaceOnUse" /><linearGradient
     inkscape:collect="always"
     xlink:href="#linearGradient874"
     id="linearGradient943"
     x1="137.366"
     y1="308.966"
     x2="374.634"
     y2="308.966"
     gradientUnits="userSpaceOnUse" /><linearGradient
     inkscape:collect="always"
     xlink:href="#linearGradient864"
     id="linearGradient951"
     x1="256"
     y1="308.966"
     x2="512"
     y2="308.966"
     gradientUnits="userSpaceOnUse" /></defs><sodipodi:namedview
   pagecolor="#ffffff"
   bordercolor="#666666"
   borderopacity="1"
   objecttolerance="10"
   gridtolerance="10"
   guidetolerance="10"
   inkscape:pageopacity="0"
   inkscape:pageshadow="2"
   inkscape:window-width="1920"
   inkscape:window-height="1027"
   id="namedview55"
   showgrid="false"
   inkscape:zoom="2.9101757"
   inkscape:cx="48.830962"
   inkscape:cy="34.659077"
   inkscape:window-x="0"
   inkscape:window-y="0"
   inkscape:window-maximized="1"
   inkscape:current-layer="Layer_1"
   inkscape:document-rotation="0" />























<g
   id="g893"
   transform="translate(-2.4033758,-1.050969)"><polygon
     style="fill:url(#linearGradient935);fill-opacity:1"
     points="512,180.966 374.634,180.966 423.724,75.034 "
     id="polygon2"
     transform="matrix(0.22869774,0,0,0.22869774,7.8567544,6.5043476)" /><polygon
     style="fill:url(#linearGradient927);fill-opacity:1"
     points="374.634,180.966 423.724,75.034 256,75.034 "
     id="polygon4"
     transform="matrix(0.22869774,0,0,0.22869774,7.8567544,6.5043476)" /><polygon
     style="fill:url(#linearGradient951);fill-opacity:1"
     points="256,436.966 374.634,180.966 512,180.966 "
     id="polygon6"
     transform="matrix(0.22869774,0,0,0.22869774,7.8567544,6.5043476)" /><polygon
     style="fill:url(#linearGradient876);fill-opacity:1"
     points="0,180.966 137.366,180.966 88.276,75.034 "
     id="polygon8"
     transform="matrix(0.22869774,0,0,0.22869774,7.8567544,6.5043476)" /><polygon
     style="fill:url(#linearGradient886);fill-opacity:1"
     points="137.366,180.966 88.276,75.034 256,75.034 "
     id="polygon10"
     transform="matrix(0.22869774,0,0,0.22869774,7.8567544,6.5043476)" /><polygon
     style="fill:url(#linearGradient919);fill-opacity:1"
     points="137.366,180.966 374.634,180.966 256,75.034 "
     id="polygon12"
     transform="matrix(0.22869774,0,0,0.22869774,7.8567544,6.5043476)" /><polygon
     style="fill:url(#linearGradient943);fill-opacity:1"
     points="256,436.966 374.634,180.966 137.366,180.966 "
     id="polygon14"
     transform="matrix(0.22869774,0,0,0.22869774,7.8567544,6.5043476)" /><polygon
     style="fill:url(#linearGradient866);fill-opacity:1"
     points="256,436.966 137.366,180.966 0,180.966 "
     id="polygon16"
     transform="matrix(0.22869774,0,0,0.22869774,7.8567544,6.5043476)" /><g
     id="g22"
     transform="matrix(0.22869774,0,0,0.22869774,7.8567544,6.5043476)">
	
	
</g><g
     id="g24"
     transform="matrix(0.22869774,0,0,0.22869774,7.8567544,6.5043476)">
</g><g
     id="g26"
     transform="matrix(0.22869774,0,0,0.22869774,7.8567544,6.5043476)">
</g><g
     id="g28"
     transform="matrix(0.22869774,0,0,0.22869774,7.8567544,6.5043476)">
</g><g
     id="g30"
     transform="matrix(0.22869774,0,0,0.22869774,7.8567544,6.5043476)">
</g><g
     id="g32"
     transform="matrix(0.22869774,0,0,0.22869774,7.8567544,6.5043476)">
</g><g
     id="g34"
     transform="matrix(0.22869774,0,0,0.22869774,7.8567544,6.5043476)">
</g><g
     id="g36"
     transform="matrix(0.22869774,0,0,0.22869774,7.8567544,6.5043476)">
</g><g
     id="g38"
     transform="matrix(0.22869774,0,0,0.22869774,7.8567544,6.5043476)">
</g><g
     id="g40"
     transform="matrix(0.22869774,0,0,0.22869774,7.8567544,6.5043476)">
</g><g
     id="g42"
     transform="matrix(0.22869774,0,0,0.22869774,7.8567544,6.5043476)">
</g><g
     id="g44"
     transform="matrix(0.22869774,0,0,0.22869774,7.8567544,6.5043476)">
</g><g
     id="g46"
     transform="matrix(0.22869774,0,0,0.22869774,7.8567544,6.5043476)">
</g><g
     id="g48"
     transform="matrix(0.22869774,0,0,0.22869774,7.8567544,6.5043476)">
</g><g
     id="g50"
     transform="matrix(0.22869774,0,0,0.22869774,7.8567544,6.5043476)">
</g><g
     id="g52"
     transform="matrix(0.22869774,0,0,0.22869774,7.8567544,6.5043476)">
</g></g>
</svg>
